# xmcd
#
# Track frame offsets:
#	150
#	16140
#	35341
#	53924
#	75621
#	90643
#	110904
#	124938
#	143708
#	166331
#
# Disc length: 2466 seconds
#
# Revision: 1
# Processed by: cddbd v1.5.2PL0 Copyright (c) Steve Scherf et al.
# Submitted via: audiograbber 1.83.01
#
DISCID=7d09a00a
DTITLE=Brad Paisley - Christmas
DYEAR=2006
DGENRE=Country
TTITLE0=Winter Wonderland
TTITLE1=Santa Looked A Lot Like Daddy
TTITLE2=I'll Be Home For Christmas
TTITLE3=Away In A Manger
TTITLE4=Penguin James Penguin
TTITLE5=364 Days To Go
TTITLE6=Jingle Bells (Instrumental)
TTITLE7=Silent Night
TTITLE8=Born On Christmas Day
TTITLE9=Silver Bells
EXTD=
EXTT0=
EXTT1=
EXTT2=
EXTT3=
EXTT4=
EXTT5=
EXTT6=
EXTT7=
EXTT8=
EXTT9=
PLAYORDER=
